<?xml version="1.0" encoding="UTF-8" standalone="no"?>
<!-- Created with Inkscape (http://www.inkscape.org/) -->

<svg
   width="400"
   height="120"
   viewBox="0 0 105.83333 31.75"
   version="1.1"
   id="svg1"
   xml:space="preserve"
   inkscape:version="1.3.2 (091e20e, 2023-11-25, custom)"
   sodipodi:docname="intro-to-shiny-for-python.svg"
   inkscape:export-filename="intro-to-shiny-for-python.png"
   inkscape:export-xdpi="96"
   inkscape:export-ydpi="96"
   xmlns:inkscape="http://www.inkscape.org/namespaces/inkscape"
   xmlns:sodipodi="http://sodipodi.sourceforge.net/DTD/sodipodi-0.dtd"
   xmlns="http://www.w3.org/2000/svg"
   xmlns:svg="http://www.w3.org/2000/svg"><sodipodi:namedview
     id="namedview1"
     pagecolor="#428bca"
     bordercolor="#000000"
     borderopacity="0.25"
     inkscape:showpageshadow="2"
     inkscape:pageopacity="0.0"
     inkscape:pagecheckerboard="0"
     inkscape:deskcolor="#d1d1d1"
     inkscape:document-units="mm"
     inkscape:zoom="2.2022289"
     inkscape:cx="145.08029"
     inkscape:cy="29.515551"
     inkscape:window-width="1920"
     inkscape:window-height="1112"
     inkscape:window-x="-8"
     inkscape:window-y="-8"
     inkscape:window-maximized="1"
     inkscape:current-layer="layer1" /><defs
     id="defs1" /><g
     inkscape:label="Layer 1"
     inkscape:groupmode="layer"
     id="layer1"><text
       xml:space="preserve"
       style="font-style:normal;font-variant:normal;font-weight:normal;font-stretch:normal;font-size:7.73603px;line-height:0.3;font-family:sans-serif;-inkscape-font-specification:sans-serif;fill:#ffffff;fill-opacity:0.980392;stroke:none;stroke-width:0.609134;stroke-opacity:0.980392"
       x="3.7064543"
       y="9.3537865"
       id="Intro"><tspan
         sodipodi:role="line"
         id="tspan1"
         style="font-style:normal;font-variant:normal;font-weight:normal;font-stretch:normal;font-size:7.73603px;font-family:sans-serif;-inkscape-font-specification:sans-serif;fill:#ffffff;stroke:none;stroke-width:0.609136"
         x="3.7064543"
         y="9.3537865">Introduction to</tspan></text><g
       id="g1692"
       transform="matrix(0.60411321,0,0,0.60411321,-77.659909,-46.79987)"
       style="fill:#f9f9f9;stroke:none"><path
         style="fill:#f9f9f9;fill-opacity:1;stroke:none;stroke-width:0.113521;stroke-opacity:0.980392"
         d="m 165.62296,105.07703 c -0.39082,-0.10127 -0.74591,-0.79535 -0.6453,-1.26135 0.21104,-0.97751 1.3533,-1.67796 2.04676,-1.2551 0.66544,0.40578 0.62884,1.55009 -0.0692,2.16296 -0.12143,0.10662 -0.29212,0.22169 -0.37931,0.25571 -0.25654,0.1001 -0.74901,0.15063 -0.95297,0.0978 z"
         id="path1689" /><g
         id="g1691"
         style="fill:#f9f9f9;stroke:none"
         transform="translate(48.136203,-18.327778)"><path
           style="fill:#f9f9f9;fill-opacity:1;stroke:none;stroke-width:0.303389;stroke-opacity:0.980392"
           d="m 505.23019,540.19762 c -1.49427,-0.13341 -4.22489,-0.74399 -5.02951,-1.12464 -1.98702,-0.94001 -3.82503,-3.28283 -4.44625,-5.66742 -0.35567,-1.3653 -0.25467,-3.57486 0.21958,-4.80343 0.48229,-1.24938 2.25201,-3.79801 3.49872,-5.03861 3.15547,-3.14 6.87152,-4.57902 16.05086,-6.21563 4.58847,-0.81808 6.66308,-1.26295 6.9374,-1.48761 0.30753,-0.25185 0.97878,-1.62866 1.40533,-2.88247 0.2025,-0.59525 0.66623,-2.465 1.03051,-4.15501 0.36428,-1.69001 0.81194,-3.4726 0.99478,-3.9613 0.30536,-0.81613 0.31107,-0.90419 0.0702,-1.08035 -0.14426,-0.10549 -0.2623,-0.26905 -0.2623,-0.36348 0,-0.36101 -1.49948,0.68813 -2.21788,1.55178 -0.4137,0.49733 -1.47462,1.95021 -2.3576,3.22862 -1.76882,2.56092 -3.43209,4.43241 -4.3634,4.90963 -0.33296,0.17061 -0.94022,0.54448 -1.34946,0.83083 -2.31323,1.61858 -6.05878,2.37576 -8.54668,1.72774 -2.2271,-0.58008 -3.30415,-1.53205 -4.52853,-4.00262 l -0.90195,-1.81999 -0.1343,-2.39619 c -0.13913,-2.48248 -0.31146,-3.44757 -0.71215,-3.98822 -0.31606,-0.42648 -0.30945,-0.43471 -2.58348,3.21583 -3.32663,5.3403 -5.10592,7.69314 -7.60569,10.05734 -1.79179,1.69461 -3.7302,2.97621 -5.7741,3.81761 -1.23723,0.50932 -1.54594,0.57173 -2.83341,0.57278 -1.29466,0.001 -1.55796,-0.0524 -2.53238,-0.51395 -1.47747,-0.69984 -2.63426,-1.88424 -3.42507,-3.5068 l -0.62191,-1.27601 -0.0573,-2.85875 c -0.11475,-5.71984 0.58634,-10.1911 3.21442,-20.50032 2.4167,-9.48003 3.3386,-13.4902 3.34012,-14.52918 0.002,-1.1372 -1.2479,-2.15617 -2.65347,-2.16381 -1.54834,-0.008 -4.16553,1.09387 -5.79963,2.44266 -2.26285,1.86774 -5.52682,6.81854 -7.56555,11.47543 -2.37704,5.42967 -3.81491,10.33616 -6.05114,20.64851 -0.49462,2.28093 -0.85888,4.27454 -0.80946,4.43023 0.1368,0.43101 -1.01922,5.82349 -1.31956,6.15536 -0.57533,0.63574 -2.17294,1.23254 -3.96247,1.48023 -2.04905,0.2836 -6.85624,0.32874 -7.34169,0.0689 -0.29269,-0.15664 -0.3137,-0.27159 -0.21279,-1.16394 0.0616,-0.54457 0.50298,-2.56256 0.98089,-4.48441 0.47791,-1.92185 0.90858,-3.83633 0.95705,-4.2544 0.0839,-0.72394 0.0755,-0.74484 -0.1767,-0.43904 -0.14566,0.1766 -1.06421,1.477 -2.04124,2.88978 -5.08189,7.34843 -7.72511,9.92947 -11.68374,11.40891 -1.02644,0.38361 -1.45277,0.45157 -2.88978,0.46065 -1.57743,0.01 -1.74076,-0.0198 -2.5429,-0.46416 -1.07369,-0.59473 -2.28239,-1.90308 -2.83259,-3.06609 -0.84623,-1.78878 -1.36605,-4.72472 -1.36688,-7.72009 -3.5e-4,-1.25959 -0.0522,-1.64824 -0.22882,-1.71603 -0.1256,-0.0482 -0.25225,-0.2546 -0.28144,-0.45867 -0.046,-0.32176 -0.1442,-0.24311 -0.73917,0.59222 -0.37736,0.5298 -1.02734,1.37192 -1.4444,1.87139 -0.41707,0.49947 -1.51263,2.12497 -2.43458,3.61223 -3.37494,5.44434 -4.36512,6.72584 -6.6276,8.57753 -1.96783,1.61053 -2.97837,2.23213 -4.37311,2.69 -2.25168,0.73917 -4.4134,0.75143 -6.08588,0.0345 -0.98125,-0.42061 -2.28158,-1.65327 -2.77851,-2.63391 -0.858,-1.69319 -1.39657,-6.38449 -1.16688,-10.16435 0.28645,-4.71397 0.93821,-7.84106 3.61412,-17.34022 1.4501,-5.14767 2.3849,-8.84026 2.7102,-10.70567 0.4269,-2.44802 -0.0858,-3.47471 -1.73525,-3.47471 -1.81953,0 -3.70002,0.9781 -6.35273,3.30425 -3.12906,2.74386 -5.33819,5.75092 -7.39272,10.06293 -2.08632,4.37874 -3.2855,8.42578 -5.61082,18.93565 -0.61948,2.7999 -1.31027,5.81634 -1.53508,6.7032 -0.22481,0.88687 -0.36668,1.78005 -0.31528,1.98485 0.16091,0.6411 -0.64567,3.45457 -1.13757,3.96799 -1.09294,1.14079 -3.15815,1.50097 -7.84225,1.36771 -2.32185,-0.0661 -3.26682,-0.14838 -3.36412,-0.29307 -0.0813,-0.12095 0.12381,-1.16134 0.5142,-2.60794 0.9831,-3.64288 2.98552,-11.77675 5.07836,-20.62841 6.12496,-25.90552 9.42871,-37.29733 14.52651,-50.08955 1.13695,-2.85303 3.79232,-8.13667 5.31045,-10.56674 3.09295,-4.95086 6.23634,-8.08846 9.8648,-9.84665 2.06216,-0.99923 3.78482,-1.46034 5.53875,-1.48259 1.62064,-0.0205 2.45034,0.29257 3.61164,1.36302 2.00238,1.84573 2.43228,4.00902 1.61018,8.1026 -1.7675,8.80118 -5.04481,15.70943 -14.40941,30.37366 -2.37806,3.72384 -3.22764,5.18465 -3.29128,5.65915 -0.0773,0.57652 -0.0512,0.63961 0.2644,0.63961 0.45292,0 0.96195,-0.26922 2.86635,-1.51597 4.37275,-2.8627 9.30629,-3.71797 12.50512,-2.16788 1.14536,0.55503 1.85734,1.29814 2.44579,2.55272 0.37945,0.80901 0.41567,1.05892 0.39659,2.73656 -0.041,3.6094 -0.7756,7.07406 -3.02933,14.28837 -0.67581,2.16332 -1.51683,5.0531 -1.86893,6.42174 -0.69172,2.68876 -1.73728,9.10692 -1.741,10.68713 -0.004,1.76544 0.85364,3.76178 1.61638,3.76178 0.56567,0 2.29016,-0.65558 3.24235,-1.23261 2.18441,-1.32375 3.99499,-3.71984 6.71132,-8.88163 4.22236,-8.02368 4.40264,-8.44815 6.81875,-16.05434 1.72766,-5.4389 2.38812,-7.22432 3.62265,-9.79315 1.21236,-2.5227 2.68253,-4.74029 4.24073,-6.39667 1.12559,-1.1965 1.29813,-1.31599 2.44889,-1.69591 2.19155,-0.72352 3.92413,-1.07138 5.81899,-1.16829 1.54225,-0.0789 1.93805,-0.0501 2.36801,0.17226 0.31862,0.16476 0.51626,0.38913 0.51626,0.58607 0,0.1755 -0.49877,1.31475 -1.10838,2.53164 -4.38337,8.75004 -7.53408,17.75365 -9.81425,28.04562 -0.58953,2.66095 -0.82727,6.45133 -0.48198,7.68457 0.2701,0.96471 0.91844,1.56269 1.79993,1.66015 0.62635,0.0693 0.82058,-0.005 1.97886,-0.75908 0.71835,-0.46751 1.99542,-1.553 2.89787,-2.46315 2.52697,-2.54851 4.18028,-5.23755 7.13791,-11.6095 0.89439,-1.92688 2.2089,-4.62321 2.92114,-5.99185 1.46408,-2.81335 2.28557,-4.97099 2.9986,-7.87581 1.15481,-4.70459 1.80103,-11.15032 1.38768,-13.84153 -0.13082,-0.85173 0.0229,-1.16221 0.71134,-1.43618 0.42666,-0.16982 4.89718,-0.50229 6.43738,-0.47875 1.30234,0.0199 2.65597,0.57753 3.54657,1.46103 0.66052,0.65524 0.75933,0.84596 0.86135,1.66255 0.0634,0.50731 0.0649,1.32556 0.003,1.81833 -0.0915,0.73221 -0.061,0.95224 0.16693,1.20407 0.72218,0.798 1.52085,0.30897 5.58646,-3.4206 1.86839,-1.71395 4.3656,-3.32641 5.16128,-3.33263 0.17827,-10e-4 0.82847,-0.21389 1.44489,-0.47222 1.73592,-0.72748 3.5195,-1.02881 5.52051,-0.93268 2.71913,0.13063 4.4824,0.94997 5.54894,2.57843 0.7858,1.19981 0.95165,1.97554 0.93365,4.36695 -0.0273,3.62899 -0.68688,6.78347 -2.95311,14.12356 -1.51806,4.91686 -2.27562,7.90497 -2.63474,10.39255 -0.14362,0.99481 -0.36415,2.50369 -0.49006,3.35307 -0.2669,1.80039 -0.29253,3.35773 -0.0685,4.1641 0.20791,0.7484 0.93086,1.42462 1.64739,1.54089 1.43286,0.23252 5.58436,-3.40923 7.93306,-6.95899 1.40394,-2.12187 3.02926,-5.2231 5.03222,-9.60184 0.72703,-1.58938 1.59094,-3.43162 1.91979,-4.09386 0.32886,-0.66224 0.86978,-2.2155 1.20205,-3.45168 2.33959,-8.70431 4.61059,-13.4087 7.9779,-16.52631 1.88342,-1.74376 3.26455,-2.45809 6.55694,-3.3913 2.58542,-0.73282 5.01513,-0.67045 5.52754,0.14189 0.30139,0.47781 -0.31566,1.84796 -1.27827,2.83838 -1.79189,1.84366 -5.18201,8.43579 -7.19711,13.99491 -1.43407,3.95619 -2.6342,8.68042 -3.2261,12.69935 -0.40325,2.73803 -0.76445,7.49103 -0.6493,8.54411 0.13492,1.23378 0.63246,2.38495 1.25843,2.91167 0.71636,0.60278 1.7314,0.47949 2.95671,-0.35913 1.33882,-0.91631 4.01327,-3.54845 5.35198,-5.26731 2.7435,-3.52256 5.41658,-8.60009 8.50054,-16.14688 2.14601,-5.25149 2.198,-5.39763 3.19937,-8.99172 1.05133,-3.77348 1.92798,-6.20694 2.71061,-7.5243 0.79625,-1.34029 2.4215,-2.89143 3.62723,-3.46183 1.94862,-0.92185 10.10091,-2.08754 10.76203,-1.53885 0.37663,0.31258 0.30562,0.50546 -0.56496,1.53471 -0.51504,0.6089 -1.27102,1.88947 -2.08099,3.525 -2.5782,5.20614 -4.30005,10.33288 -6.49728,19.34549 -0.50587,2.07502 -1.49965,6.04847 -2.20837,8.82988 -0.70873,2.78142 -1.3409,5.49059 -1.40483,6.02038 -0.0639,0.5298 -0.56051,2.31037 -1.10348,3.95684 -0.95822,2.90558 -1.14663,3.94151 -0.89054,4.896 0.25228,0.94023 2.80406,-0.32532 6.64613,-3.29615 1.98331,-1.53356 4.04809,-3.43185 8.74962,-8.0441 4.54437,-4.45808 6.65677,-6.306 9.19617,-8.04479 1.9673,-1.34705 4.5341,-2.71263 5.09879,-2.71263 0.99377,0 2.24498,0.99935 2.74273,2.19064 0.32394,0.77529 0.27827,1.96744 -0.0991,2.58634 -0.18922,0.31033 -0.90888,0.8972 -1.77185,1.4449 -5.37307,3.41007 -10.45925,6.76236 -12.03615,7.93299 -1.01544,0.75382 -3.58012,2.55027 -5.69929,3.99211 -2.11918,1.44183 -4.99236,3.42113 -6.38485,4.39843 -1.3925,0.97731 -3.21051,2.21039 -4.04004,2.74018 -2.02482,1.29318 -3.15953,2.22609 -3.89419,3.20164 -0.33631,0.44657 -0.73601,0.92031 -0.88822,1.05276 -0.15223,0.13245 -0.49986,0.89102 -0.77252,1.68571 -2.36007,6.87849 -7.63967,13.07537 -14.12208,16.57564 -3.95051,2.13313 -8.78788,3.18832 -12.92374,2.81908 z m 5.9401,-4.6771 c 2.12451,-0.77283 4.33489,-2.80395 6.42583,-5.90469 1.63366,-2.42263 2.94514,-5.5223 3.22312,-7.61783 l 0.11189,-0.84347 -0.54574,0.10938 c -0.30017,0.0602 -2.05041,0.36229 -3.88944,0.67139 -6.4806,1.08923 -9.53567,2.03918 -12.29153,3.82193 -1.2542,0.81134 -1.72016,1.5591 -1.93596,3.10677 -0.408,2.92614 1.12056,5.71205 3.74686,6.82892 0.95927,0.40794 3.82288,0.31217 5.15497,-0.1724 z M 393.00648,482.32804 c 0.23432,-0.27848 0.67081,-0.99236 0.96996,-1.5864 0.29915,-0.59403 0.658,-1.19415 0.79744,-1.33359 0.37702,-0.37702 6.71396,-11.00559 8.43838,-14.15318 4.43267,-8.09101 6.85019,-14.77869 7.70627,-21.31821 0.20418,-1.55966 0.13896,-2.05483 -0.33278,-2.52657 -0.68797,-0.68797 -2.03051,-0.19255 -3.47258,1.28143 -0.75109,0.76771 -2.56129,3.95575 -4.22634,7.44323 -3.66676,7.68008 -6.59472,15.95183 -10.26511,28.99985 -0.99313,3.53051 -1.00649,3.69088 -0.30798,3.69732 0.14668,10e-4 0.45841,-0.2254 0.69274,-0.50388 z"
           id="path1690"
           transform="scale(0.26458333)" /><path
           style="fill:#f9f9f9;fill-opacity:1;stroke:none;stroke-width:0.303389;stroke-opacity:0.980392"
           d="m 332.32491,535.16277 c -3.1282,-0.17877 -5.42766,-1.04187 -7.70002,-2.8902 -2.19044,-1.78168 -4.07561,-4.70245 -4.81245,-7.45609 -0.421,-1.57335 -0.49973,-3.95871 -0.18289,-5.54166 0.73449,-3.66955 4.76716,-9.46915 6.58424,-9.46915 0.98036,0 1.32179,0.69851 1.63036,3.33541 0.46855,4.00415 1.22223,6.80131 2.63727,9.78785 1.84194,3.88754 4.34418,6.53857 7.82481,8.29006 4.13305,2.07981 8.5144,1.04881 12.3504,-2.90623 2.08212,-2.14673 4.25997,-5.80577 4.94761,-8.31258 0.40767,-1.48614 0.49344,-4.68225 0.17154,-6.39155 -0.87867,-4.66567 -3.35249,-8.67436 -10.48713,-16.99379 -4.48566,-5.23055 -6.53062,-8.09282 -8.41176,-11.77367 -2.9634,-5.79853 -3.88835,-10.79842 -2.93113,-15.84449 0.26,-1.37056 1.53822,-5.09166 2.3837,-6.93929 2.73111,-5.96831 8.60473,-11.21432 14.83576,-13.25053 2.42891,-0.79373 4.01395,-1.04064 6.68609,-1.04153 2.89825,-9.6e-4 4.05751,0.22017 7.70463,1.46964 7.58591,2.59888 11.13062,5.56573 11.43343,9.56953 0.0893,1.18043 0.0785,1.22577 -0.5811,2.44865 -2.11424,3.91967 -4.91327,6.74587 -7.48339,7.55603 l -0.88244,0.27817 -0.57428,-0.55162 c -1.07205,-1.02975 -1.48647,-2.28086 -1.83129,-5.52847 -0.23072,-2.17295 -0.85694,-4.7581 -1.36337,-5.62825 -0.90508,-1.5551 -2.84512,-2.768 -5.12522,-3.20426 -1.43017,-0.27363 -3.99568,-0.30555 -5.63164,-0.0701 -4.02339,0.57915 -6.38744,3.7969 -7.82202,10.64667 -0.85681,4.09105 -0.67648,6.252 0.76547,9.17287 1.03892,2.10446 1.99564,3.28498 5.85487,7.22445 1.90301,1.94258 4.18493,4.43501 5.07094,5.53875 7.94977,9.90333 11.00163,15.89163 11.25864,22.09154 0.10685,2.57759 -0.0827,3.97351 -0.93827,6.91039 -1.41582,4.85996 -3.10283,7.73956 -6.47575,11.05366 -2.02436,1.98906 -4.0633,3.45465 -6.67035,4.79466 -4.69507,2.41325 -8.32574,3.26866 -15.41217,3.63118 -3.3849,0.17317 -3.69147,0.1729 -6.82309,-0.006 z"
           id="path1691"
           transform="scale(0.26458333)" /></g></g><text
       xml:space="preserve"
       style="font-style:normal;font-variant:normal;font-weight:normal;font-stretch:normal;font-size:8.59558px;line-height:0.3;font-family:sans-serif;-inkscape-font-specification:sans-serif;fill:#ffffff;fill-opacity:0.980392;stroke:none;stroke-width:0.609134;stroke-opacity:0.980392"
       x="45.803078"
       y="25.051563"
       id="text1692"><tspan
         sodipodi:role="line"
         id="tspan1692"
         style="font-style:normal;font-variant:normal;font-weight:normal;font-stretch:normal;font-size:8.59558px;font-family:sans-serif;-inkscape-font-specification:sans-serif;fill:#ffffff;stroke:none;stroke-width:0.609136"
         x="45.803078"
         y="25.051563">for </tspan></text><text
       xml:space="preserve"
       style="font-style:normal;font-variant:normal;font-weight:normal;font-stretch:normal;font-size:12.0338px;line-height:0.3;font-family:sans-serif;-inkscape-font-specification:sans-serif;fill:#ffffff;fill-opacity:0.980392;stroke:none;stroke-width:0.609134;stroke-opacity:0.980392"
       x="61.428062"
       y="25.191324"
       id="text1693"><tspan
         sodipodi:role="line"
         id="tspan1693"
         style="font-style:normal;font-variant:normal;font-weight:normal;font-stretch:normal;font-size:12.0338px;line-height:0.3;font-family:sans-serif;-inkscape-font-specification:sans-serif;fill:#ffffff;stroke:none;stroke-width:0.609136"
         x="61.428062"
         y="25.191324">Python</tspan></text></g></svg>
